<?xml version="1.0" standalone="no"?>
<!DOCTYPE svg PUBLIC "-//W3C//DTD SVG 20010904//EN"
 "http://www.w3.org/TR/2001/REC-SVG-20010904/DTD/svg10.dtd">
<svg version="1.0" xmlns="http://www.w3.org/2000/svg"
 width="1024.000000pt" height="1024.000000pt" viewBox="0 0 1024.000000 1024.000000"
 preserveAspectRatio="xMidYMid meet">

<g transform="translate(0.000000,1024.000000) scale(0.100000,-0.100000)"
fill="#000000" stroke="none">
<path d="M3251 8598 c-46 -148 -321 -1226 -801 -3148 -266 -1063 -424 -1672
-735 -2830 -57 -212 -122 -455 -144 -542 -23 -86 -44 -163 -47 -172 -6 -15 46
-16 560 -16 l565 0 10 38 c5 20 60 235 121 477 61 242 134 528 161 635 128
497 259 1012 259 1016 0 2 361 4 803 4 l803 0 73 -317 c86 -371 80 -349 205
-878 53 -225 124 -525 157 -665 74 -316 72 -312 82 -311 4 1 750 1 1657 1
l1650 0 0 470 0 470 -730 0 -730 0 0 2885 0 2885 -525 0 -525 0 -1 -2712 0
-2713 -29 115 c-147 602 -449 1812 -832 3340 -253 1009 -469 1872 -480 1918
l-20 82 -748 0 -748 0 -11 -32z m853 -1516 c42 -171 110 -453 151 -624 156
-646 179 -742 265 -1090 l87 -358 -608 0 -608 0 14 43 c7 23 41 148 74 277 34
129 77 296 97 370 30 116 102 392 310 1184 86 328 137 516 140 514 1 -2 37
-144 78 -316z"/>
</g>
</svg>
